<svg xmlns="http://www.w3.org/2000/svg" xmlns:xlink="http://www.w3.org/1999/xlink" width="64" height="56" viewBox="0 0 64 56">
  <defs>
    <style>
      .cls-1 {
        fill-rule: evenodd;
        filter: url(#filter);
      }
    </style>
    <filter id="filter" x="0.344" y="0" width="63.031" height="55.125" filterUnits="userSpaceOnUse">
      <feFlood result="flood" flood-color="#fff"/>
      <feComposite result="composite" operator="in" in2="SourceGraphic"/>
      <feBlend result="blend" in2="SourceGraphic"/>
    </filter>
  </defs>
  <path id="logos" class="cls-1" d="M37.108,10.713H26.6L31.854,19.9Zm-11.821.766-5.254,9.191H30.54Zm18.389,9.191L38.422,11.48l-5.254,9.191H43.676ZM33.168,22.2l5.254,9.188L43.676,22.2H33.168Zm-13.136,0,5.254,9.188L30.54,22.2H20.032Zm-6.568,9.952H23.971l-5.253-9.187Zm36.779,0L44.99,22.967l-5.252,9.187H50.243ZM31.854-.006L26.6,9.184H37.108ZM44.99,42.874l5.254-9.188H39.738Zm-26.271,0,5.253-9.188H13.465ZM6.9,43.641H17.4l-5.253-9.19Zm49.914,0-5.254-9.19L46.3,43.641H56.811ZM46.3,45.172l5.254,9.187,5.254-9.187H46.3Zm-13.135,0,5.254,9.187,5.254-9.187H33.168ZM12.151,54.359L17.4,45.172H6.9Zm-11.82.769h10.5L5.582,45.939Zm26.269,0H37.108l-5.254-9.188Zm13.137,0H50.243L44.99,45.939Zm18.388-9.188-5.252,9.188h10.5Z"/>
</svg>
