<svg xmlns="http://www.w3.org/2000/svg" xmlns:xlink="http://www.w3.org/1999/xlink" width="44" height="44" viewBox="0 0 44 44">
  <defs>
    <style>
      .cls-1 {
        fill-rule: evenodd;
        filter: url(#filter);
      }
    </style>
    <filter id="filter" x="0" y="0" width="44" height="44" filterUnits="userSpaceOnUse">
      <feFlood result="flood" flood-color="#c7b299"/>
      <feComposite result="composite" operator="in" in2="SourceGraphic"/>
      <feBlend result="blend" in2="SourceGraphic"/>
    </filter>
  </defs>
  <path id="icon" class="cls-1" d="M28.873,23.374H15.126a1.375,1.375,0,0,0,0,2.75H28.873A1.375,1.375,0,0,0,28.873,23.374Zm2.749-8.248H12.376a1.375,1.375,0,1,0,0,2.749H31.622A1.375,1.375,0,1,0,31.622,15.126ZM22,0C9.852,0,0,8.62,0,19.25A18.423,18.423,0,0,0,8.252,34.261V44l9.636-5.847A25.25,25.25,0,0,0,22,38.5c12.149,0,22-8.617,22-19.247S34.148,0,22,0Zm0,35.744a22.231,22.231,0,0,1-4.647-.5L10.88,39.133l0.087-6.376C6.005,29.772,2.753,24.839,2.753,19.25c0-9.11,8.617-16.5,19.247-16.5s19.247,7.387,19.247,16.5S32.629,35.747,22,35.747Z"/>
</svg>
