<svg xmlns="http://www.w3.org/2000/svg" xmlns:xlink="http://www.w3.org/1999/xlink" width="100" height="100" viewBox="0 0 100 100">
  <defs>
    <style>
      .cls-1 {
        opacity: 0.2;
      }

      .cls-2 {
        fill-rule: evenodd;
        filter: url(#filter);
      }
    </style>
    <filter id="filter" x="15.031" y="15.031" width="69.969" height="69.969" filterUnits="userSpaceOnUse">
      <feFlood result="flood" flood-color="#fff"/>
      <feComposite result="composite" operator="in" in2="SourceGraphic"/>
      <feBlend result="blend" in2="SourceGraphic"/>
    </filter>
  </defs>
  <circle id="circle" class="cls-1" cx="50" cy="50" r="50"/>
  <path id="icon-play" class="cls-2" d="M44.934,66.82a2.058,2.058,0,0,1-2.059-2.059V35.235a2.06,2.06,0,0,1,3.378-1.582L63.967,48.415a2.06,2.06,0,0,1,0,3.165L46.253,66.343A2.06,2.06,0,0,1,44.934,66.82Zm2.061-27.187V60.362L59.431,50ZM49.937,85a34.808,34.808,0,0,1-17.106-4.471,2.06,2.06,0,0,1,2.021-3.59,30.925,30.925,0,1,0-6.7-5.093,2.06,2.06,0,1,1-2.913,2.914A35.059,35.059,0,1,1,49.937,85Z"/>
</svg>
