<svg xmlns="http://www.w3.org/2000/svg" xmlns:xlink="http://www.w3.org/1999/xlink" width="22" height="22" viewBox="0 0 22 22">
  <defs>
    <style>
      .cls-1 {
        fill-rule: evenodd;
        filter: url(#filter);
      }
    </style>
    <filter id="filter" x="0" y="0.031" width="21.969" height="21.969" filterUnits="userSpaceOnUse">
      <feFlood result="flood" flood-color="#d1d1d1"/>
      <feComposite result="composite" operator="in" in2="SourceGraphic"/>
      <feBlend result="blend" in2="SourceGraphic"/>
    </filter>
  </defs>
  <path id="left" class="cls-1" d="M7.583,10.434l4.772-4.773A0.736,0.736,0,1,1,13.4,6.7L9.141,10.957,13.4,15.211a0.736,0.736,0,1,1-1.04,1.041L7.583,11.48A0.742,0.742,0,0,1,7.583,10.434Zm3.4-10.409A10.985,10.985,0,1,1,0,11.011,10.985,10.985,0,0,1,10.987.026Zm0,20.5a9.513,9.513,0,1,0-9.513-9.512A9.525,9.525,0,0,0,10.987,20.523Z"/>
</svg>
